<svg width="19" height="15" viewBox="0 0 19 15" fill="none" xmlns="http://www.w3.org/2000/svg">
<path fill-rule="evenodd" clip-rule="evenodd" d="M15.7894 0C16.2255 0 16.5789 0.353459 16.5789 0.789472V2.36822H18.1571C18.5931 2.36822 18.9466 2.72168 18.9466 3.1577C18.9466 3.59371 18.5931 3.94717 18.1571 3.94717H16.5789V5.52631C16.5789 5.96232 16.2255 6.31578 15.7894 6.31578C15.3534 6.31578 15 5.96232 15 5.5263V3.94717H13.4203C12.9842 3.94717 12.6308 3.59371 12.6308 3.1577C12.6308 2.72168 12.9842 2.36822 13.4203 2.36822H15V0.789472C15 0.353458 15.3534 0 15.7894 0ZM1.77631 4.3421C2.75734 4.3421 3.55262 3.54681 3.55262 2.56578C3.55262 1.58475 2.75734 0.789472 1.77631 0.789472C0.795282 0.789472 0 1.58475 0 2.56578C0 3.54681 0.795282 4.3421 1.77631 4.3421ZM1.77631 9.67103C2.75734 9.67103 3.55262 8.87575 3.55262 7.89472C3.55262 6.91369 2.75734 6.11841 1.77631 6.11841C0.795282 6.11841 0 6.91369 0 7.89472C0 8.87575 0.795282 9.67103 1.77631 9.67103ZM3.55262 13.2235C3.55262 14.2045 2.75734 14.9998 1.77631 14.9998C0.795282 14.9998 0 14.2045 0 13.2235C0 12.2424 0.795282 11.4472 1.77631 11.4472C2.75734 11.4472 3.55262 12.2424 3.55262 13.2235ZM7.10525 11.4472C6.12422 11.4472 5.32894 12.2424 5.32894 13.2235C5.32894 14.2045 6.12422 14.9998 7.10525 14.9998H12.4342C13.4152 14.9998 14.2105 14.2045 14.2105 13.2235C14.2105 12.2424 13.4152 11.4472 12.4342 11.4472H7.10525ZM5.32894 8.09209C5.32894 7.11106 6.12422 6.31578 7.10525 6.31578H12.4342C13.4152 6.31578 14.2105 7.11106 14.2105 8.09209C14.2105 9.07312 13.4152 9.8684 12.4342 9.8684H7.10525C6.12422 9.8684 5.32894 9.07312 5.32894 8.09209ZM7.49998 0.789472C6.40995 0.789472 5.5263 1.67312 5.5263 2.76315C5.5263 3.85319 6.40995 4.73683 7.49998 4.73683H9.8684C10.9584 4.73683 11.8421 3.85319 11.8421 2.76315C11.8421 1.67312 10.9584 0.789472 9.8684 0.789472H7.49998Z" fill="#848484"/>
</svg>
