<svg width="9" height="11" viewBox="0 0 9 11" fill="none" xmlns="http://www.w3.org/2000/svg">
<path d="M1.36296 10.4694C1.37537 10.7659 1.61935 10.9999 1.91605 10.9999H7.084C7.38071 10.9999 7.62468 10.7659 7.6371 10.4694L8.00616 2.67847H0.993896L1.36296 10.4694ZM5.66908 4.61359C5.66908 4.48945 5.76974 4.38877 5.89393 4.38877H6.25357C6.37768 4.38877 6.47843 4.48943 6.47843 4.61359V9.06473C6.47843 9.1889 6.37777 9.28956 6.25357 9.28956H5.89393C5.76979 9.28956 5.66908 9.18895 5.66908 9.06473V4.61359ZM4.09538 4.61359C4.09538 4.48945 4.19604 4.38877 4.32021 4.38877H4.67984C4.80396 4.38877 4.90467 4.48943 4.90467 4.61359V9.06473C4.90467 9.1889 4.80404 9.28956 4.67984 9.28956H4.32021C4.19607 9.28956 4.09538 9.18895 4.09538 9.06473V4.61359ZM2.52163 4.61359C2.52163 4.48945 2.62229 4.38877 2.74646 4.38877H3.10612C3.23026 4.38877 3.33095 4.48943 3.33095 4.61359V9.06473C3.33095 9.1889 3.23029 9.28956 3.10612 9.28956H2.74646C2.62231 9.28956 2.52163 9.18895 2.52163 9.06473V4.61359Z" fill="#B4B4B4"/>
<path d="M8.25191 0.566665H5.86776V0.115929C5.86776 0.0519189 5.81586 0 5.75183 0H3.24822C3.18421 0 3.13232 0.0519189 3.13232 0.115929V0.566638H0.74814C0.556271 0.566638 0.400757 0.722179 0.400757 0.914048V2.0054H8.59929V0.914075C8.59929 0.722206 8.44378 0.566665 8.25191 0.566665Z" fill="#B4B4B4"/>
</svg>
