<svg width="11" height="10" viewBox="0 0 11 10" fill="none" xmlns="http://www.w3.org/2000/svg">
<path d="M4.94886 1.38863L4.9489 1.38865L4.949 1.3887L5.18655 1.51718L5.42411 1.3887L5.42421 1.38865L5.42425 1.38863L5.42441 1.38854L5.42583 1.38778L5.43413 1.38337L5.47044 1.36447C5.50313 1.34765 5.55228 1.32283 5.61551 1.2922C5.74215 1.23086 5.9243 1.14673 6.14311 1.05723C6.58551 0.876271 7.15691 0.682029 7.71377 0.601034C8.28478 0.51798 8.7502 0.567163 9.05867 0.766223C9.33085 0.941867 9.59704 1.31275 9.59704 2.17603C9.59704 3.91629 8.4864 5.55213 7.28198 6.80041C6.68929 7.41468 6.09487 7.91342 5.64807 8.25871C5.46537 8.39991 5.30806 8.5149 5.18656 8.60111C5.06506 8.5149 4.90775 8.39991 4.72505 8.25872C4.27825 7.91342 3.68384 7.41468 3.09116 6.80041C1.88675 5.55213 0.776123 3.91629 0.776123 2.17603C0.776123 1.31275 1.04231 0.941865 1.31449 0.766221C1.62295 0.567164 2.08837 0.51798 2.65937 0.601034C3.21622 0.682028 3.78761 0.876271 4.23 1.05723C4.44881 1.14673 4.63096 1.23086 4.7576 1.2922C4.82083 1.32283 4.86998 1.34765 4.90267 1.36447L4.93898 1.38337L4.94728 1.38778L4.9487 1.38854L4.94886 1.38863Z" stroke="black"/>
</svg>
