<svg width="14" height="14" viewBox="0 0 14 14" fill="none" xmlns="http://www.w3.org/2000/svg">
<path d="M12.3453 7.35198C11.9881 6.7954 11.4849 6.35002 10.89 6.06406C10.7539 5.9986 10.5905 6.05592 10.5251 6.19203C10.4597 6.32815 10.517 6.4915 10.6531 6.55694C11.6897 7.05525 12.3595 8.11999 12.3595 9.26947C12.3595 9.76133 12.2383 10.2491 12.0089 10.6802C11.938 10.8135 11.9886 10.9791 12.1219 11.05C12.1628 11.0718 12.2068 11.0821 12.2501 11.0821C12.3479 11.0821 12.4425 11.0294 12.4917 10.937C12.763 10.4272 12.9064 9.85058 12.9064 9.26947C12.9064 8.58697 12.7124 7.92391 12.3453 7.35198Z" fill="white"/>
<path d="M9.78013 5.71487L9.76173 5.71484C9.61073 5.71484 9.48828 5.83726 9.48828 5.98828C9.48828 6.1393 9.61073 6.26172 9.76173 6.26172L9.77756 6.26174C9.778 6.26174 9.77841 6.26174 9.77887 6.26174C9.92929 6.26174 10.0516 6.14017 10.0523 5.98959C10.053 5.83857 9.93112 5.71558 9.78013 5.71487Z" fill="white"/>
<path d="M8.94089 12.2774L8.92506 12.2773C8.77336 12.2771 8.65108 12.3985 8.65039 12.5495C8.64968 12.7005 8.77158 12.8235 8.92257 12.8242L8.94089 12.8243C9.09188 12.8243 9.21432 12.7018 9.21432 12.5508C9.21432 12.3998 9.09188 12.2774 8.94089 12.2774Z" fill="white"/>
<path d="M10.5932 4.78974C10.5599 4.71044 10.5191 4.63571 10.4717 4.5664H11.1836C11.8771 4.5664 12.4414 4.00213 12.4414 3.30859C12.4414 2.61504 11.8771 2.05078 11.1836 2.05078H8.99389C9.1331 1.84838 9.21483 1.60352 9.21483 1.33984C9.21483 0.646296 8.65056 0.0820312 7.95702 0.0820312H1.25781C0.564265 0.0820312 0 0.646296 0 1.33984C0 2.03339 0.564265 2.59765 1.25781 2.59765H3.44749C3.30829 2.80005 3.22656 3.04491 3.22656 3.30859C3.22656 3.57226 3.30826 3.81713 3.44749 4.01952H2.73437C2.04082 4.01952 1.47656 4.58379 1.47656 5.27733C1.47656 5.67565 1.66288 6.03109 1.95275 6.26171C1.66288 6.49232 1.47656 6.84776 1.47656 7.24608C1.47656 7.6444 1.66288 7.99984 1.95275 8.23045C1.66288 8.46107 1.47656 8.81651 1.47656 9.21483C1.47656 9.61314 1.66288 9.96858 1.95275 10.1992C1.66288 10.4298 1.47656 10.7853 1.47656 11.1836C1.47656 11.8771 2.04082 12.4414 2.73437 12.4414H5.95682C6.80574 13.3494 8.0134 13.918 9.35157 13.918C11.9147 13.918 14 11.8327 14 9.26954C14 7.13627 12.5554 5.33429 10.5932 4.78974ZM11.1836 2.59765C11.5756 2.59765 11.8945 2.91659 11.8945 3.30859C11.8945 3.70059 11.5756 4.01952 11.1836 4.01952H9.43358H4.48437C4.09234 4.01952 3.77343 3.70059 3.77343 3.30859C3.77343 2.91659 4.09234 2.59765 4.48437 2.59765H11.1836ZM1.25781 2.05078C0.865784 2.05078 0.546874 1.73184 0.546874 1.33984C0.546874 0.947842 0.865784 0.628905 1.25781 0.628905H7.95702C8.34904 0.628905 8.66795 0.947842 8.66795 1.33984C8.66795 1.73184 8.34904 2.05078 7.95702 2.05078H1.25781ZM2.73437 4.5664H9.43358C9.54372 4.5664 9.64918 4.59199 9.74379 4.63782C9.61445 4.62696 9.4837 4.62111 9.35157 4.62111C8.06792 4.62111 6.90417 5.14417 6.06215 5.98827H2.73437C2.34237 5.98827 2.02343 5.66933 2.02343 5.27733C2.02343 4.88533 2.34237 4.5664 2.73437 4.5664ZM2.73437 6.53514H5.59493C5.28453 6.96042 5.04453 7.44008 4.89212 7.95702H2.73437C2.34234 7.95702 2.02343 7.63811 2.02343 7.24608C2.02343 6.85408 2.34234 6.53514 2.73437 6.53514ZM2.73437 8.50389H4.76655C4.72507 8.75307 4.70314 9.00876 4.70314 9.26954C4.70314 9.49228 4.71925 9.71131 4.74968 9.92576H2.73437C2.34234 9.92576 2.02343 9.60685 2.02343 9.21483C2.02343 8.8228 2.34234 8.50389 2.73437 8.50389ZM2.73437 11.8945C2.34234 11.8945 2.02343 11.5756 2.02343 11.1836C2.02343 10.7915 2.34234 10.4726 2.73437 10.4726H4.86133C4.9993 10.9871 5.22344 11.4665 5.51738 11.8945H2.73437ZM9.35157 13.3711C7.08997 13.3711 5.25002 11.5311 5.25002 9.26954C5.25002 7.00794 7.08997 5.16799 9.35157 5.16799C11.6132 5.16799 13.4531 7.00794 13.4531 9.26954C13.4531 11.5311 11.6132 13.3711 9.35157 13.3711Z" fill="white"/>
</svg>
