<svg width="21" height="22" viewBox="0 0 21 22" fill="none" xmlns="http://www.w3.org/2000/svg">
<path d="M13 16.2959H7V17.2959H13V16.2959Z" fill="#1C9B91"/>
<path d="M5.30012 1.62928H15.7001V4.2959H17V1.62928C17 0.893625 16.4186 0.295898 15.7001 0.295898H5.30012C4.58213 0.295898 4 0.893625 4 1.62928V4.2959H5.30012V1.62928Z" fill="#1C9B91"/>
<path d="M15 13.2959H7V15.2959H15V13.2959Z" fill="#1C9B91"/>
<path d="M19.6877 5.2959H1.3126C0.587719 5.2959 0 5.89346 0 6.62916V14.6293C0 15.3661 0.587719 15.9624 1.3126 15.9624H3.93766V19.9625C3.93766 20.6996 4.52538 21.2959 5.25026 21.2959H15.7501C16.4755 21.2959 17.0625 20.6996 17.0625 19.9625V15.9624H19.6876C20.413 15.9624 21 15.3661 21 14.6293V6.62916C21 5.89346 20.4131 5.2959 19.6877 5.2959ZM15.7501 19.9626H5.25026V11.9625H15.7501V19.9626ZM18.3749 9.29595C17.6495 9.29595 17.0625 8.69958 17.0625 7.96256C17.0625 7.22694 17.6495 6.62916 18.3749 6.62916C19.1005 6.62916 19.6877 7.2269 19.6877 7.96256C19.6877 8.69954 19.1005 9.29595 18.3749 9.29595Z" fill="#1C9B91"/>
</svg>
