<svg width="18" height="18" viewBox="0 0 18 18" fill="none" xmlns="http://www.w3.org/2000/svg">
<path d="M16.7399 8.13387L16.2738 6.26936C16.4012 6.24229 16.4969 6.12923 16.4969 5.99377V5.69315C16.4969 5.04044 15.9658 4.50944 15.3131 4.50944H13.19V3.88935C13.19 3.56817 12.9287 3.30688 12.6075 3.30688H1.78495C1.46377 3.30688 1.20248 3.56817 1.20248 3.88935V9.00002C1.20248 9.15565 1.32866 9.28187 1.48433 9.28187C1.63997 9.28187 1.76618 9.15569 1.76618 9.00002V3.88935C1.76618 3.87898 1.77458 3.87058 1.78495 3.87058H12.6075C12.6179 3.87058 12.6263 3.87898 12.6263 3.88935V9.00009C12.6263 9.15573 12.7524 9.28194 12.9081 9.28194C13.0637 9.28194 13.19 9.15576 13.19 9.00009V8.68059H16.5146C16.5149 8.68059 16.5151 8.68066 16.5154 8.68066C16.5157 8.68066 16.5159 8.68062 16.5162 8.68062C16.9253 8.6809 17.2727 8.94943 17.392 9.31945H16.5156C16.36 9.31945 16.2337 9.44562 16.2337 9.60129V10.2025C16.2337 10.6895 16.6299 11.0856 17.1168 11.0856H17.4363V12.3257H16.6993C16.4572 11.6267 15.7927 11.1232 15.0125 11.1232C14.2322 11.1232 13.5676 11.6267 13.3256 12.3257H13.1899V10.2025C13.1899 10.0469 13.0637 9.92065 12.908 9.92065C12.7524 9.92065 12.6262 10.0468 12.6262 10.2025V12.3256H6.77872C6.53664 11.6266 5.87215 11.1231 5.09186 11.1231C4.31156 11.1231 3.64704 11.6266 3.40499 12.3256H1.78495C1.77458 12.3256 1.76618 12.3172 1.76618 12.3068V11.6868H2.98747C3.14311 11.6868 3.26932 11.5606 3.26932 11.405C3.26932 11.2493 3.14314 11.1231 2.98747 11.1231H0.281848C0.126211 11.1231 0 11.2493 0 11.405C0 11.5606 0.126176 11.6868 0.281848 11.6868H1.20252V12.3068C1.20252 12.628 1.4638 12.8893 1.78499 12.8893H3.30739C3.30732 12.8956 3.3069 12.9018 3.3069 12.9081C3.3069 13.8923 4.10766 14.693 5.09186 14.693C6.07606 14.693 6.87681 13.8923 6.87681 12.9081C6.87681 12.9018 6.87639 12.8956 6.87632 12.8893H13.228C13.2279 12.8956 13.2275 12.9018 13.2275 12.9081C13.2275 13.8923 14.0283 14.693 15.0125 14.693C15.9967 14.693 16.7974 13.8923 16.7974 12.9081C16.7974 12.9018 16.797 12.8956 16.7969 12.8893H17.7181C17.8738 12.8893 18 12.7631 18 12.6075V9.60123C18 8.85901 17.4524 8.24233 16.7399 8.13387ZM13.19 5.0731H15.3131C15.655 5.0731 15.9332 5.35126 15.9332 5.69315V5.71192H13.19V5.0731ZM13.19 8.11693V6.27558H15.6943L16.1547 8.11693H13.19ZM5.09186 14.1295C4.41844 14.1295 3.87056 13.5816 3.87056 12.9082C3.87056 12.2347 4.41844 11.6869 5.09186 11.6869C5.76527 11.6869 6.31315 12.2347 6.31315 12.9082C6.31315 13.5816 5.76527 14.1295 5.09186 14.1295ZM15.0125 14.1295C14.3391 14.1295 13.7912 13.5816 13.7912 12.9082C13.7912 12.2347 14.3391 11.6869 15.0125 11.6869C15.6859 11.6869 16.2338 12.2347 16.2338 12.9082C16.2338 13.5816 15.6859 14.1295 15.0125 14.1295ZM17.4363 10.5219H17.1169C16.9408 10.5219 16.7975 10.3786 16.7975 10.2025V9.88307H17.4363V10.5219H17.4363Z" fill="white"/>
<path d="M5.09223 12.3257C4.77105 12.3257 4.50977 12.587 4.50977 12.9082C4.50977 13.2293 4.77105 13.4906 5.09223 13.4906C5.41342 13.4906 5.6747 13.2293 5.6747 12.9082C5.6747 12.587 5.41342 12.3257 5.09223 12.3257Z" fill="white"/>
<path d="M15.0122 12.3257C14.691 12.3257 14.4297 12.587 14.4297 12.9082C14.4297 13.2293 14.691 13.4906 15.0122 13.4906C15.3333 13.4906 15.5946 13.2293 15.5946 12.9082C15.5946 12.587 15.3333 12.3257 15.0122 12.3257Z" fill="white"/>
<path d="M11.7064 11.1232H7.49767C7.34203 11.1232 7.21582 11.2493 7.21582 11.405C7.21582 11.5607 7.342 11.6869 7.49767 11.6869H11.7064C11.8621 11.6869 11.9883 11.5607 11.9883 11.405C11.9883 11.2493 11.8621 11.1232 11.7064 11.1232Z" fill="white"/>
<path d="M4.49092 9.92065H0.88341C0.727773 9.92065 0.601562 10.0468 0.601562 10.2025C0.601562 10.3582 0.727738 10.4843 0.88341 10.4843H4.49092C4.64656 10.4843 4.77277 10.3582 4.77277 10.2025C4.77277 10.0468 4.64656 9.92065 4.49092 9.92065Z" fill="white"/>
<path d="M9.80026 6.0951C9.69022 5.98506 9.51173 5.98506 9.40169 6.09513L6.89532 8.60145L5.59148 7.29761C5.4814 7.18754 5.30295 7.18754 5.19291 7.29761C5.08283 7.40769 5.08283 7.58611 5.19291 7.69618L6.69605 9.19932C6.75107 9.25437 6.82321 9.28186 6.89532 9.28186C6.96743 9.28186 7.0396 9.25437 7.09459 9.19932L9.80022 6.4937C9.9103 6.38359 9.9103 6.20517 9.80026 6.0951Z" fill="white"/>
</svg>
