<svg width="16" height="16" viewBox="0 0 16 16" fill="none" xmlns="http://www.w3.org/2000/svg">
<path d="M7.17469 1.09665C7.5719 0.517081 8.42723 0.51708 8.82444 1.09665L11.0103 4.2861C11.1403 4.47583 11.3318 4.61494 11.5524 4.67998L15.2612 5.77327C15.9352 5.97194 16.1995 6.7854 15.771 7.34227L13.4132 10.4067C13.2729 10.589 13.1998 10.8141 13.2061 11.044L13.3124 14.9092C13.3317 15.6115 12.6397 16.1143 11.9777 15.8789L8.33461 14.5834C8.11789 14.5063 7.88123 14.5063 7.66452 14.5834L4.0214 15.8789C3.35939 16.1143 2.66741 15.6115 2.68673 14.9092L2.79303 11.044C2.79936 10.8141 2.72622 10.589 2.58596 10.4067L0.228086 7.34227C-0.200376 6.7854 0.0639338 5.97194 0.737883 5.77327L4.4467 4.67998C4.66733 4.61494 4.85879 4.47583 4.98882 4.2861L7.17469 1.09665Z" fill="#858585"/>
</svg>
