<svg width="18" height="19" viewBox="0 0 18 19" fill="none" xmlns="http://www.w3.org/2000/svg">
<path fill-rule="evenodd" clip-rule="evenodd" d="M4.5 2.5459C4.5 3.78857 3.49268 4.7959 2.25 4.7959C1.00732 4.7959 0 3.78857 0 2.5459C0 1.30322 1.00732 0.295898 2.25 0.295898C3.49268 0.295898 4.5 1.30322 4.5 2.5459ZM4.5 9.2959C4.5 10.5386 3.49268 11.5459 2.25 11.5459C1.00732 11.5459 0 10.5386 0 9.2959C0 8.05322 1.00732 7.0459 2.25 7.0459C3.49268 7.0459 4.5 8.05322 4.5 9.2959ZM2.25 18.2959C3.49268 18.2959 4.5 17.2886 4.5 16.0459C4.5 14.8032 3.49268 13.7959 2.25 13.7959C1.00732 13.7959 0 14.8032 0 16.0459C0 17.2886 1.00732 18.2959 2.25 18.2959ZM11.25 16.0459C11.25 17.2886 10.2427 18.2959 9 18.2959C7.75732 18.2959 6.75 17.2886 6.75 16.0459C6.75 14.8032 7.75732 13.7959 9 13.7959C10.2427 13.7959 11.25 14.8032 11.25 16.0459ZM9 11.5459C10.2427 11.5459 11.25 10.5386 11.25 9.2959C11.25 8.05322 10.2427 7.0459 9 7.0459C7.75732 7.0459 6.75 8.05322 6.75 9.2959C6.75 10.5386 7.75732 11.5459 9 11.5459ZM11.25 2.5459C11.25 3.78857 10.2427 4.7959 9 4.7959C7.75732 4.7959 6.75 3.78857 6.75 2.5459C6.75 1.30322 7.75732 0.295898 9 0.295898C10.2427 0.295898 11.25 1.30322 11.25 2.5459ZM15.75 18.2959C16.9927 18.2959 18 17.2886 18 16.0459C18 14.8032 16.9927 13.7959 15.75 13.7959C14.5073 13.7959 13.5 14.8032 13.5 16.0459C13.5 17.2886 14.5073 18.2959 15.75 18.2959ZM18 9.2959C18 10.5386 16.9927 11.5459 15.75 11.5459C14.5073 11.5459 13.5 10.5386 13.5 9.2959C13.5 8.05322 14.5073 7.0459 15.75 7.0459C16.9927 7.0459 18 8.05322 18 9.2959ZM15.75 4.7959C16.9927 4.7959 18 3.78857 18 2.5459C18 1.30322 16.9927 0.295898 15.75 0.295898C14.5073 0.295898 13.5 1.30322 13.5 2.5459C13.5 3.78857 14.5073 4.7959 15.75 4.7959Z" fill="white"/>
</svg>
