<svg width="18" height="19" viewBox="0 0 18 19" fill="none" xmlns="http://www.w3.org/2000/svg">
<path fill-rule="evenodd" clip-rule="evenodd" d="M0 2.5459C0 1.30322 1.00732 0.295898 2.25 0.295898H15.75C16.9927 0.295898 18 1.30322 18 2.5459C18 3.78857 16.9927 4.7959 15.75 4.7959H2.25C1.00732 4.7959 0 3.78857 0 2.5459ZM0 9.2959C0 8.05322 1.00732 7.0459 2.25 7.0459H15.75C16.9927 7.0459 18 8.05322 18 9.2959C18 10.5386 16.9927 11.5459 15.75 11.5459H2.25C1.00732 11.5459 0 10.5386 0 9.2959ZM2.25 13.7959C1.00732 13.7959 0 14.8032 0 16.0459C0 17.2886 1.00732 18.2959 2.25 18.2959H15.75C16.9927 18.2959 18 17.2886 18 16.0459C18 14.8032 16.9927 13.7959 15.75 13.7959H2.25Z" fill="#858585"/>
</svg>
