<svg width="18" height="19" viewBox="0 0 18 19" fill="none" xmlns="http://www.w3.org/2000/svg">
<path fill-rule="evenodd" clip-rule="evenodd" d="M2.25 4.7959C3.49268 4.7959 4.5 3.78857 4.5 2.5459C4.5 1.30322 3.49268 0.295898 2.25 0.295898C1.00732 0.295898 0 1.30322 0 2.5459C0 3.78857 1.00732 4.7959 2.25 4.7959ZM2.25 11.5459C3.49268 11.5459 4.5 10.5386 4.5 9.2959C4.5 8.05322 3.49268 7.0459 2.25 7.0459C1.00732 7.0459 0 8.05322 0 9.2959C0 10.5386 1.00732 11.5459 2.25 11.5459ZM4.5 16.0459C4.5 17.2886 3.49268 18.2959 2.25 18.2959C1.00732 18.2959 0 17.2886 0 16.0459C0 14.8032 1.00732 13.7959 2.25 13.7959C3.49268 13.7959 4.5 14.8032 4.5 16.0459ZM9 0.295898C7.75732 0.295898 6.75 1.30322 6.75 2.5459C6.75 3.78857 7.75732 4.7959 9 4.7959H15.75C16.9927 4.7959 18 3.78857 18 2.5459C18 1.30322 16.9927 0.295898 15.75 0.295898H9ZM6.75 9.2959C6.75 8.05322 7.75732 7.0459 9 7.0459H15.75C16.9927 7.0459 18 8.05322 18 9.2959C18 10.5386 16.9927 11.5459 15.75 11.5459H9C7.75732 11.5459 6.75 10.5386 6.75 9.2959ZM9 13.7959C7.75732 13.7959 6.75 14.8032 6.75 16.0459C6.75 17.2886 7.75732 18.2959 9 18.2959H15.75C16.9927 18.2959 18 17.2886 18 16.0459C18 14.8032 16.9927 13.7959 15.75 13.7959H9Z" fill="#858585"/>
</svg>
