<svg width="15" height="15" viewBox="0 0 15 15" fill="none" xmlns="http://www.w3.org/2000/svg">
<path d="M14.1602 6.66172H13.8033V4.51754C13.8033 3.6408 13.0896 2.93018 12.216 2.93018H11.8868L11.8899 2.13342C11.8899 1.54277 11.41 1.06287 10.8193 1.06287H1.30127C0.590648 1.06287 0.00922888 1.63506 0 2.34568C0 2.35183 0 2.35799 0 2.36414V12.8666C0 13.4572 0.479901 13.9371 1.07055 13.9371H12.219C13.0958 13.9371 13.8064 13.2234 13.8064 12.3498V10.2025H14.1632C14.6247 10.2025 15 9.82722 15 9.36578V7.49847C14.9969 7.03703 14.6216 6.66172 14.1602 6.66172ZM1.30127 1.80118H10.8193C11.0008 1.80118 11.1516 1.94884 11.1516 2.13034L11.1485 2.93018H1.30127C0.990566 2.93018 0.73831 2.67792 0.73831 2.36721C0.73831 2.05651 0.990566 1.80118 1.30127 1.80118ZM13.065 12.3467C13.065 12.8143 12.6836 13.1958 12.216 13.1958H1.06747C0.885972 13.1958 0.735234 13.0481 0.735234 12.8635V3.53928C0.907506 3.62234 1.09824 3.66849 1.30127 3.66849H12.216C12.6836 3.66849 13.065 4.04995 13.065 4.51754V6.66172H10.5455C10.0841 6.66172 9.70878 7.03703 9.70878 7.49847V9.36578C9.70878 9.82722 10.0841 10.2025 10.5455 10.2025H13.065V12.3467ZM14.2586 9.36578C14.2586 9.42115 14.2155 9.46422 14.1602 9.46422H10.5486C10.4932 9.46422 10.4502 9.42115 10.4502 9.36578V7.49847C10.4502 7.44617 10.4932 7.40003 10.5486 7.40003H14.1602C14.2125 7.40003 14.2586 7.4431 14.2586 7.49847V9.36578Z" fill="white"/>
</svg>
